<?xml version="1.0" encoding="UTF-8" standalone="no"?><svg xmlns="http://www.w3.org/2000/svg" xmlns:xlink="http://www.w3.org/1999/xlink" contentScriptType="application/ecmascript" contentStyleType="text/css" height="826px" preserveAspectRatio="none" style="width:1934px;height:826px;" version="1.1" viewBox="0 0 1934 826" width="1934px" zoomAndPan="magnify"><defs><filter height="300%" id="f78dg0tkm55rm" width="300%" x="-1" y="-1"><feGaussianBlur result="blurOut" stdDeviation="2.0"/><feColorMatrix in="blurOut" result="blurOut2" type="matrix" values="0 0 0 0 0 0 0 0 0 0 0 0 0 0 0 0 0 0 .4 0"/><feOffset dx="4.0" dy="4.0" in="blurOut2" result="blurOut3"/><feBlend in="SourceGraphic" in2="blurOut3" mode="normal"/></filter></defs><g><text fill="#000000" font-family="sans-serif" font-size="18" lengthAdjust="spacingAndGlyphs" textLength="486" x="723" y="26.708">RDM 1.1 - Record Requirements (Registrar Requisitos)</text><ellipse cx="83" cy="69.6514" fill="#000000" filter="url(#f78dg0tkm55rm)" rx="10" ry="10" style="stroke: none; stroke-width: 1.0;"/><path d="M166,89.6514 L166,120.917 L146,124.917 L166,128.917 L166,160.1826 A0,0 0 0 0 166,160.1826 L355,160.1826 A0,0 0 0 0 355,160.1826 L355,99.6514 L345,89.6514 L166,89.6514 A0,0 0 0 0 166,89.6514 " fill="#FBFB77" filter="url(#f78dg0tkm55rm)" style="stroke: #A80036; stroke-width: 1.0;"/><path d="M345,89.6514 L345,99.6514 L355,99.6514 L345,89.6514 " fill="#FBFB77" style="stroke: #A80036; stroke-width: 1.0;"/><text fill="#000000" font-family="sans-serif" font-size="13" lengthAdjust="spacingAndGlyphs" textLength="54" x="172" y="106.7183">Entrada:</text><text fill="#000000" font-family="sans-serif" font-size="13" lengthAdjust="spacingAndGlyphs" textLength="168" x="172" y="121.8511">- Solicitação verbal/escrita</text><text fill="#000000" font-family="sans-serif" font-size="13" lengthAdjust="spacingAndGlyphs" textLength="148" x="172" y="136.9839">- Feedback de usuários</text><text fill="#000000" font-family="sans-serif" font-size="13" lengthAdjust="spacingAndGlyphs" textLength="144" x="172" y="152.1167">- Mudanças de escopo</text><rect fill="#FEFECE" filter="url(#f78dg0tkm55rm)" height="45.6094" rx="12.5" ry="12.5" style="stroke: #A80036; stroke-width: 1.5;" width="126" x="20" y="102.1123"/><text fill="#000000" font-family="sans-serif" font-size="11" lengthAdjust="spacingAndGlyphs" textLength="103" x="30" y="122.3228">Disparar requisito</text><text fill="#000000" font-family="sans-serif" font-size="11" lengthAdjust="spacingAndGlyphs" textLength="106" x="30" y="135.1274">(reunião/feedback)</text><path d="M673.25,182.8545 L673.25,198.9873 L653.25,202.9873 L673.25,206.9873 L673.25,223.1201 A0,0 0 0 0 673.25,223.1201 L840.25,223.1201 A0,0 0 0 0 840.25,223.1201 L840.25,192.8545 L830.25,182.8545 L673.25,182.8545 A0,0 0 0 0 673.25,182.8545 " fill="#FBFB77" filter="url(#f78dg0tkm55rm)" style="stroke: #A80036; stroke-width: 1.0;"/><path d="M830.25,182.8545 L830.25,192.8545 L840.25,192.8545 L830.25,182.8545 " fill="#FBFB77" style="stroke: #A80036; stroke-width: 1.0;"/><text fill="#000000" font-family="sans-serif" font-size="13" lengthAdjust="spacingAndGlyphs" textLength="56" x="679.25" y="199.9214">Artefato:</text><text fill="#000000" font-family="sans-serif" font-size="13" lengthAdjust="spacingAndGlyphs" textLength="146" x="679.25" y="215.0542">Notas/Atas de Reunião</text><rect fill="#FEFECE" filter="url(#f78dg0tkm55rm)" height="45.6094" rx="12.5" ry="12.5" style="stroke: #A80036; stroke-width: 1.5;" width="141" x="512.25" y="180.1826"/><text fill="#000000" font-family="sans-serif" font-size="11" lengthAdjust="spacingAndGlyphs" textLength="121" x="522.25" y="200.3931">Receber informações</text><text fill="#000000" font-family="sans-serif" font-size="11" lengthAdjust="spacingAndGlyphs" textLength="75" x="522.25" y="213.1978">de requisitos</text><polygon fill="#FEFECE" filter="url(#f78dg0tkm55rm)" points="532.25,245.792,633.25,245.792,645.25,257.792,633.25,269.792,532.25,269.792,520.25,257.792,532.25,245.792" style="stroke: #A80036; stroke-width: 1.5;"/><text fill="#000000" font-family="sans-serif" font-size="10" lengthAdjust="spacingAndGlyphs" textLength="101" x="532.25" y="255.4336">Requisito completo e</text><text fill="#000000" font-family="sans-serif" font-size="10" lengthAdjust="spacingAndGlyphs" textLength="75" x="532.25" y="267.0742">compreensível?</text><text fill="#000000" font-family="sans-serif" font-size="11" lengthAdjust="spacingAndGlyphs" textLength="21" x="499.25" y="255.1978">não</text><text fill="#000000" font-family="sans-serif" font-size="11" lengthAdjust="spacingAndGlyphs" textLength="21" x="645.25" y="255.1978">sim</text><rect fill="#FEFECE" filter="url(#f78dg0tkm55rm)" height="45.6094" rx="12.5" ry="12.5" style="stroke: #A80036; stroke-width: 1.5;" width="157" x="365" y="289.792"/><text fill="#000000" font-family="sans-serif" font-size="11" lengthAdjust="spacingAndGlyphs" textLength="137" x="375" y="310.0024">Solicitar esclarecimento</text><text fill="#000000" font-family="sans-serif" font-size="11" lengthAdjust="spacingAndGlyphs" textLength="85" x="375" y="322.8071">ao stakeholder</text><path d="M810.5,292.4639 L810.5,308.5967 L790.5,312.5967 L810.5,316.5967 L810.5,332.7295 A0,0 0 0 0 810.5,332.7295 L967.5,332.7295 A0,0 0 0 0 967.5,332.7295 L967.5,302.4639 L957.5,292.4639 L810.5,292.4639 A0,0 0 0 0 810.5,292.4639 " fill="#FBFB77" filter="url(#f78dg0tkm55rm)" style="stroke: #A80036; stroke-width: 1.0;"/><path d="M957.5,292.4639 L957.5,302.4639 L967.5,302.4639 L957.5,292.4639 " fill="#FBFB77" style="stroke: #A80036; stroke-width: 1.0;"/><text fill="#000000" font-family="sans-serif" font-size="13" lengthAdjust="spacingAndGlyphs" textLength="56" x="816.5" y="309.5308">Artefato:</text><text fill="#000000" font-family="sans-serif" font-size="13" font-weight="bold" lengthAdjust="spacingAndGlyphs" textLength="76" x="876.5" y="309.5308">User Story</text><text fill="#000000" font-family="sans-serif" font-size="13" lengthAdjust="spacingAndGlyphs" textLength="69" x="816.5" y="324.6636">(essencial)</text><rect fill="#FEFECE" filter="url(#f78dg0tkm55rm)" height="45.6094" rx="12.5" ry="12.5" style="stroke: #A80036; stroke-width: 1.5;" width="137" x="653.5" y="289.792"/><text fill="#000000" font-family="sans-serif" font-size="11" lengthAdjust="spacingAndGlyphs" textLength="117" x="663.5" y="310.0024">Registrar User Story</text><text fill="#000000" font-family="sans-serif" font-size="11" lengthAdjust="spacingAndGlyphs" textLength="109" x="663.5" y="322.8071">no Product Backlog</text><rect fill="#FEFECE" filter="url(#f78dg0tkm55rm)" height="45.6094" rx="12.5" ry="12.5" style="stroke: #A80036; stroke-width: 1.5;" width="117" x="552" y="480.8271"/><text fill="#000000" font-family="sans-serif" font-size="11" lengthAdjust="spacingAndGlyphs" textLength="97" x="562" y="501.0376">Revisar e ajustar</text><text fill="#000000" font-family="sans-serif" font-size="11" lengthAdjust="spacingAndGlyphs" textLength="54" x="562" y="513.8423">a história</text><path d="M911,480.8271 L911,504.5264 L891,508.5264 L911,512.5264 L911,536.2256 A0,0 0 0 0 911,536.2256 L1137,536.2256 A0,0 0 0 0 1137,536.2256 L1137,490.8271 L1127,480.8271 L911,480.8271 A0,0 0 0 0 911,480.8271 " fill="#FBFB77" filter="url(#f78dg0tkm55rm)" style="stroke: #A80036; stroke-width: 1.0;"/><path d="M1127,480.8271 L1127,490.8271 L1137,490.8271 L1127,480.8271 " fill="#FBFB77" style="stroke: #A80036; stroke-width: 1.0;"/><text fill="#000000" font-family="sans-serif" font-size="13" lengthAdjust="spacingAndGlyphs" textLength="56" x="917" y="497.894">Artefato:</text><text fill="#000000" font-family="sans-serif" font-size="13" font-weight="bold" lengthAdjust="spacingAndGlyphs" textLength="205" x="917" y="513.0269">Product Backlog Atualizado</text><text fill="#000000" font-family="sans-serif" font-size="13" lengthAdjust="spacingAndGlyphs" textLength="69" x="917" y="528.1597">(essencial)</text><rect fill="#FEFECE" filter="url(#f78dg0tkm55rm)" height="45.6094" rx="12.5" ry="12.5" style="stroke: #A80036; stroke-width: 1.5;" width="115" x="776" y="485.7217"/><text fill="#000000" font-family="sans-serif" font-size="11" lengthAdjust="spacingAndGlyphs" textLength="95" x="786" y="505.9321">Atualizar backlog</text><text fill="#000000" font-family="sans-serif" font-size="11" lengthAdjust="spacingAndGlyphs" textLength="81" x="786" y="518.7368">compartilhado</text><path d="M1303,350.5068 L1303,374.2061 L1283,378.2061 L1303,382.2061 L1303,405.9053 A0,0 0 0 0 1303,405.9053 L1467,405.9053 A0,0 0 0 0 1467,405.9053 L1467,360.5068 L1457,350.5068 L1303,350.5068 A0,0 0 0 0 1303,350.5068 " fill="#FBFB77" filter="url(#f78dg0tkm55rm)" style="stroke: #A80036; stroke-width: 1.0;"/><path d="M1457,350.5068 L1457,360.5068 L1467,360.5068 L1457,350.5068 " fill="#FBFB77" style="stroke: #A80036; stroke-width: 1.0;"/><text fill="#000000" font-family="sans-serif" font-size="13" lengthAdjust="spacingAndGlyphs" textLength="56" x="1309" y="367.5737">Artefato:</text><text fill="#000000" font-family="sans-serif" font-size="13" lengthAdjust="spacingAndGlyphs" textLength="143" x="1309" y="382.7065">Checklist de Validação</text><text fill="#000000" font-family="sans-serif" font-size="13" lengthAdjust="spacingAndGlyphs" textLength="99" x="1309" y="397.8394">(recomendado)</text><rect fill="#FEFECE" filter="url(#f78dg0tkm55rm)" height="45.6094" rx="12.5" ry="12.5" style="stroke: #A80036; stroke-width: 1.5;" width="111" x="1172" y="355.4014"/><text fill="#000000" font-family="sans-serif" font-size="11" lengthAdjust="spacingAndGlyphs" textLength="91" x="1182" y="375.6118">Verificar clareza</text><text fill="#000000" font-family="sans-serif" font-size="11" lengthAdjust="spacingAndGlyphs" textLength="63" x="1182" y="388.4165">do registro</text><polygon fill="#FEFECE" filter="url(#f78dg0tkm55rm)" points="1180,425.9053,1275,425.9053,1287,443.3662,1275,460.8271,1180,460.8271,1168,443.3662,1180,425.9053" style="stroke: #A80036; stroke-width: 1.5;"/><text fill="#000000" font-family="sans-serif" font-size="10" lengthAdjust="spacingAndGlyphs" textLength="77" x="1180" y="435.1875">User Story com</text><text fill="#000000" font-family="sans-serif" font-size="10" lengthAdjust="spacingAndGlyphs" textLength="95" x="1180" y="446.8281">propósito e critérios</text><text fill="#000000" font-family="sans-serif" font-size="10" lengthAdjust="spacingAndGlyphs" textLength="46" x="1180" y="458.4688">mínimos?</text><text fill="#000000" font-family="sans-serif" font-size="11" lengthAdjust="spacingAndGlyphs" textLength="21" x="1147" y="440.772">não</text><text fill="#000000" font-family="sans-serif" font-size="11" lengthAdjust="spacingAndGlyphs" textLength="21" x="1287" y="440.772">sim</text><path d="M1718,551.3311 L1718,575.0303 L1698,579.0303 L1718,583.0303 L1718,606.7295 A0,0 0 0 0 1718,606.7295 L1912,606.7295 A0,0 0 0 0 1912,606.7295 L1912,561.3311 L1902,551.3311 L1718,551.3311 A0,0 0 0 0 1718,551.3311 " fill="#FBFB77" filter="url(#f78dg0tkm55rm)" style="stroke: #A80036; stroke-width: 1.0;"/><path d="M1902,551.3311 L1902,561.3311 L1912,561.3311 L1902,551.3311 " fill="#FBFB77" style="stroke: #A80036; stroke-width: 1.0;"/><text fill="#000000" font-family="sans-serif" font-size="13" lengthAdjust="spacingAndGlyphs" textLength="56" x="1724" y="568.3979">Artefato:</text><text fill="#000000" font-family="sans-serif" font-size="13" font-weight="bold" lengthAdjust="spacingAndGlyphs" textLength="173" x="1724" y="583.5308">Log de Rastreabilidade</text><text fill="#000000" font-family="sans-serif" font-size="13" lengthAdjust="spacingAndGlyphs" textLength="69" x="1724" y="598.6636">(essencial)</text><rect fill="#FEFECE" filter="url(#f78dg0tkm55rm)" height="45.6094" rx="12.5" ry="12.5" style="stroke: #A80036; stroke-width: 1.5;" width="173" x="1525" y="556.2256"/><text fill="#000000" font-family="sans-serif" font-size="11" lengthAdjust="spacingAndGlyphs" textLength="153" x="1535" y="576.436">Confirmar armazenamento</text><text fill="#000000" font-family="sans-serif" font-size="11" lengthAdjust="spacingAndGlyphs" textLength="97" x="1535" y="589.2407">e rastreabilidade</text><polygon fill="#FEFECE" filter="url(#f78dg0tkm55rm)" points="1571,626.7295,1652,626.7295,1664,638.7295,1652,650.7295,1571,650.7295,1559,638.7295,1571,626.7295" style="stroke: #A80036; stroke-width: 1.5;"/><text fill="#000000" font-family="sans-serif" font-size="10" lengthAdjust="spacingAndGlyphs" textLength="81" x="1571" y="636.3711">Requisito salvo e</text><text fill="#000000" font-family="sans-serif" font-size="10" lengthAdjust="spacingAndGlyphs" textLength="54" x="1571" y="648.0117">rastreável?</text><text fill="#000000" font-family="sans-serif" font-size="11" lengthAdjust="spacingAndGlyphs" textLength="21" x="1538" y="636.1353">não</text><text fill="#000000" font-family="sans-serif" font-size="11" lengthAdjust="spacingAndGlyphs" textLength="21" x="1664" y="636.1353">sim</text><rect fill="#FEFECE" filter="url(#f78dg0tkm55rm)" height="45.6094" rx="12.5" ry="12.5" style="stroke: #A80036; stroke-width: 1.5;" width="144" x="1477" y="660.7295"/><text fill="#000000" font-family="sans-serif" font-size="11" lengthAdjust="spacingAndGlyphs" textLength="124" x="1487" y="680.9399">Verificar configuração</text><text fill="#000000" font-family="sans-serif" font-size="11" lengthAdjust="spacingAndGlyphs" textLength="82" x="1487" y="693.7446">da ferramenta</text><path d="M1705,660.7295 L1705,714.6943 L1685,718.6943 L1705,722.6943 L1705,776.6592 A0,0 0 0 0 1705,776.6592 L1908,776.6592 A0,0 0 0 0 1908,776.6592 L1908,670.7295 L1898,660.7295 L1705,660.7295 A0,0 0 0 0 1705,660.7295 " fill="#FBFB77" filter="url(#f78dg0tkm55rm)" style="stroke: #A80036; stroke-width: 1.0;"/><path d="M1898,660.7295 L1898,670.7295 L1908,670.7295 L1898,660.7295 " fill="#FBFB77" style="stroke: #A80036; stroke-width: 1.0;"/><text fill="#000000" font-family="sans-serif" font-size="13" lengthAdjust="spacingAndGlyphs" textLength="40" x="1711" y="677.7964">Saída:</text><text fill="#000000" font-family="sans-serif" font-size="13" lengthAdjust="spacingAndGlyphs" textLength="182" x="1711" y="692.9292">- Product Backlog atualizado</text><text fill="#000000" font-family="sans-serif" font-size="13" lengthAdjust="spacingAndGlyphs" textLength="149" x="1711" y="708.062">- Requisitos rastreáveis</text><text fill="#000000" font-family="sans-serif" font-size="13" lengthAdjust="spacingAndGlyphs" textLength="158" x="1711" y="723.1948">- Histórico documentado</text><text fill="#000000" font-family="sans-serif" font-size="13" lengthAdjust="spacingAndGlyphs" textLength="0" x="1715" y="738.3276"/><text fill="#000000" font-family="sans-serif" font-size="13" font-weight="bold" lengthAdjust="spacingAndGlyphs" textLength="141" x="1711" y="753.4604">Conecta à RDM 2.1</text><text fill="#000000" font-family="sans-serif" font-size="13" lengthAdjust="spacingAndGlyphs" textLength="135" x="1711" y="768.5933">(Elicitar User Stories)</text><ellipse cx="1674" cy="718.6943" fill="#FFFFFF" filter="url(#f78dg0tkm55rm)" rx="11" ry="11" style="stroke: #000000; stroke-width: 1.0;"/><ellipse cx="1674" cy="718.6943" fill="#000000" rx="6" ry="6" style="stroke: #7F7F7F; stroke-width: 1.0;"/><line style="stroke: #A80036; stroke-width: 1.5;" x1="83" x2="83" y1="79.6514" y2="102.1123"/><polygon fill="#A80036" points="79,92.1123,83,102.1123,87,92.1123,83,96.1123" style="stroke: #A80036; stroke-width: 1.0;"/><line style="stroke: #A80036; stroke-width: 1.5;" x1="520.25" x2="443.5" y1="257.792" y2="257.792"/><line style="stroke: #A80036; stroke-width: 1.5;" x1="443.5" x2="443.5" y1="257.792" y2="289.792"/><polygon fill="#A80036" points="439.5,279.792,443.5,289.792,447.5,279.792,443.5,283.792" style="stroke: #A80036; stroke-width: 1.0;"/><line style="stroke: #A80036; stroke-width: 1.5;" x1="645.25" x2="722" y1="257.792" y2="257.792"/><line style="stroke: #A80036; stroke-width: 1.5;" x1="722" x2="722" y1="257.792" y2="289.792"/><polygon fill="#A80036" points="718,279.792,722,289.792,726,279.792,722,283.792" style="stroke: #A80036; stroke-width: 1.0;"/><line style="stroke: #A80036; stroke-width: 1.5;" x1="582.75" x2="582.75" y1="225.792" y2="245.792"/><polygon fill="#A80036" points="578.75,235.792,582.75,245.792,586.75,235.792,582.75,239.792" style="stroke: #A80036; stroke-width: 1.0;"/><line style="stroke: #A80036; stroke-width: 1.5;" x1="1227.5" x2="1227.5" y1="401.0107" y2="425.9053"/><polygon fill="#A80036" points="1223.5,415.9053,1227.5,425.9053,1231.5,415.9053,1227.5,419.9053" style="stroke: #A80036; stroke-width: 1.0;"/><line style="stroke: #A80036; stroke-width: 1.5;" x1="1559" x2="1549" y1="638.7295" y2="638.7295"/><line style="stroke: #A80036; stroke-width: 1.5;" x1="1549" x2="1549" y1="638.7295" y2="660.7295"/><polygon fill="#A80036" points="1545,650.7295,1549,660.7295,1553,650.7295,1549,654.7295" style="stroke: #A80036; stroke-width: 1.0;"/><line style="stroke: #A80036; stroke-width: 1.5;" x1="1664" x2="1674" y1="638.7295" y2="638.7295"/><line style="stroke: #A80036; stroke-width: 1.5;" x1="1674" x2="1674" y1="638.7295" y2="707.6943"/><polygon fill="#A80036" points="1670,697.6943,1674,707.6943,1678,697.6943,1674,701.6943" style="stroke: #A80036; stroke-width: 1.0;"/><line style="stroke: #A80036; stroke-width: 1.5;" x1="1611.5" x2="1611.5" y1="601.835" y2="626.7295"/><polygon fill="#A80036" points="1607.5,616.7295,1611.5,626.7295,1615.5,616.7295,1611.5,620.7295" style="stroke: #A80036; stroke-width: 1.0;"/><line style="stroke: #A80036; stroke-width: 1.5;" x1="83" x2="83" y1="147.7217" y2="165.1826"/><line style="stroke: #A80036; stroke-width: 1.5;" x1="83" x2="582.75" y1="165.1826" y2="165.1826"/><line style="stroke: #A80036; stroke-width: 1.5;" x1="582.75" x2="582.75" y1="165.1826" y2="180.1826"/><polygon fill="#A80036" points="578.75,170.1826,582.75,180.1826,586.75,170.1826,582.75,174.1826" style="stroke: #A80036; stroke-width: 1.0;"/><line style="stroke: #A80036; stroke-width: 1.5;" x1="722" x2="722" y1="335.4014" y2="340.4014"/><line style="stroke: #A80036; stroke-width: 1.5;" x1="722" x2="1227.5" y1="340.4014" y2="340.4014"/><line style="stroke: #A80036; stroke-width: 1.5;" x1="1227.5" x2="1227.5" y1="340.4014" y2="355.4014"/><polygon fill="#A80036" points="1223.5,345.4014,1227.5,355.4014,1231.5,345.4014,1227.5,349.4014" style="stroke: #A80036; stroke-width: 1.0;"/><line style="stroke: #A80036; stroke-width: 1.5;" x1="833.5" x2="833.5" y1="531.3311" y2="541.2256"/><line style="stroke: #A80036; stroke-width: 1.5;" x1="833.5" x2="1611.5" y1="541.2256" y2="541.2256"/><line style="stroke: #A80036; stroke-width: 1.5;" x1="1611.5" x2="1611.5" y1="541.2256" y2="556.2256"/><polygon fill="#A80036" points="1607.5,546.2256,1611.5,556.2256,1615.5,546.2256,1611.5,550.2256" style="stroke: #A80036; stroke-width: 1.0;"/><line style="stroke: #A80036; stroke-width: 1.5;" x1="1168" x2="610.5" y1="443.3662" y2="443.3662"/><line style="stroke: #A80036; stroke-width: 1.5;" x1="610.5" x2="610.5" y1="443.3662" y2="480.8271"/><polygon fill="#A80036" points="606.5,470.8271,610.5,480.8271,614.5,470.8271,610.5,474.8271" style="stroke: #A80036; stroke-width: 1.0;"/><line style="stroke: #A80036; stroke-width: 1.5;" x1="1287" x2="1299" y1="443.3662" y2="443.3662"/><line style="stroke: #A80036; stroke-width: 1.5;" x1="1299" x2="1299" y1="443.3662" y2="469.5576"/><line style="stroke: #A80036; stroke-width: 1.5;" x1="1299" x2="833.5" y1="469.5576" y2="469.5576"/><line style="stroke: #A80036; stroke-width: 1.5;" x1="833.5" x2="833.5" y1="469.5576" y2="485.7217"/><polygon fill="#A80036" points="829.5,475.7217,833.5,485.7217,837.5,475.7217,833.5,479.7217" style="stroke: #A80036; stroke-width: 1.0;"/><text fill="#000000" font-family="sans-serif" font-size="18" lengthAdjust="spacingAndGlyphs" textLength="114" x="130.5" y="50.4063">Stakeholders</text><text fill="#000000" font-family="sans-serif" font-size="18" lengthAdjust="spacingAndGlyphs" textLength="134" x="684" y="50.4063">Product Owner</text><text fill="#000000" font-family="sans-serif" font-size="18" lengthAdjust="spacingAndGlyphs" textLength="234" x="1190" y="50.4063">Time de Desenvolvimento</text><text fill="#000000" font-family="sans-serif" font-size="18" lengthAdjust="spacingAndGlyphs" textLength="220" x="1584.5" y="50.4063">Ferramenta (Jira/GitHub)</text><line style="stroke: #000000; stroke-width: 2.0;" x1="10" x2="10" y1="33.6982" y2="814.6592"/><line style="stroke: #000000; stroke-width: 2.0;" x1="360" x2="360" y1="33.6982" y2="814.6592"/><line style="stroke: #000000; stroke-width: 2.0;" x1="1142" x2="1142" y1="33.6982" y2="814.6592"/><line style="stroke: #000000; stroke-width: 2.0;" x1="1472" x2="1472" y1="33.6982" y2="814.6592"/><line style="stroke: #000000; stroke-width: 2.0;" x1="1922" x2="1922" y1="33.6982" y2="814.6592"/><!--MD5=[93cee1c7aa99f1c3eceda66c7f9aba8d]
@startuml RDM-1.1-Record-Requirements
title RDM 1.1 - Record Requirements (Registrar Requisitos)
skinparam activityFontSize 11
skinparam activityDiamondFontSize 10

|Stakeholders|
start
:Disparar requisito
(reunião/feedback);
note right
  Entrada:
  - Solicitação verbal/escrita
  - Feedback de usuários
  - Mudanças de escopo
end note

|Product Owner|
:Receber informações
de requisitos;
note right
  Artefato:
  Notas/Atas de Reunião
end note

if (Requisito completo e\ncompreensível?) then (não)
  :Solicitar esclarecimento
  ao stakeholder;
  detach
else (sim)
  :Registrar User Story
  no Product Backlog;
  note right
    Artefato: **User Story**
    (essencial)
  end note
  
  |Time de Desenvolvimento|
  :Verificar clareza
  do registro;
  note right
    Artefato:
    Checklist de Validação
    (recomendado)
  end note
  
  if (User Story com\npropósito e critérios\nmínimos?) then (não)
    |Product Owner|
    :Revisar e ajustar
    a história;
    detach
  else (sim)
    |Product Owner|
    :Atualizar backlog
    compartilhado;
    note right
      Artefato:
      **Product Backlog Atualizado**
      (essencial)
    end note
    
    |Ferramenta (Jira/GitHub)|
    :Confirmar armazenamento
    e rastreabilidade;
    note right
      Artefato:
      **Log de Rastreabilidade**
      (essencial)
    end note
    
    if (Requisito salvo e\nrastreável?) then (não)
      :Verificar configuração
      da ferramenta;
      detach
    else (sim)
      stop
      note right
        Saída:
        - Product Backlog atualizado
        - Requisitos rastreáveis
        - Histórico documentado
        
        **Conecta à RDM 2.1**
        (Elicitar User Stories)
      end note
    endif
  endif
endif

@enduml

PlantUML version 1.2020.02(Sun Mar 01 07:22:07 BRT 2020)
(GPL source distribution)
Java Runtime: Java(TM) SE Runtime Environment
JVM: Java HotSpot(TM) 64-Bit Server VM
Java Version: 17.0.11+7-LTS-207
Operating System: Linux
Default Encoding: UTF-8
Language: en
Country: null
--></g></svg>