<?xml version="1.0" encoding="UTF-8" standalone="no"?><svg xmlns="http://www.w3.org/2000/svg" xmlns:xlink="http://www.w3.org/1999/xlink" contentScriptType="application/ecmascript" contentStyleType="text/css" height="1450px" preserveAspectRatio="none" style="width:2356px;height:1450px;" version="1.1" viewBox="0 0 2356 1450" width="2356px" zoomAndPan="magnify"><defs><filter height="300%" id="fcj2ogmakdqc6" width="300%" x="-1" y="-1"><feGaussianBlur result="blurOut" stdDeviation="2.0"/><feColorMatrix in="blurOut" result="blurOut2" type="matrix" values="0 0 0 0 0 0 0 0 0 0 0 0 0 0 0 0 0 0 .4 0"/><feOffset dx="4.0" dy="4.0" in="blurOut2" result="blurOut3"/><feBlend in="SourceGraphic" in2="blurOut3" mode="normal"/></filter></defs><g><text fill="#000000" font-family="sans-serif" font-size="18" lengthAdjust="spacingAndGlyphs" textLength="584" x="885.25" y="26.708">RDM CMMI + Práticas ágeis (visão parcial detalhada até RDM 2.3)</text><ellipse cx="308.5" cy="69.6514" fill="#000000" filter="url(#fcj2ogmakdqc6)" rx="10" ry="10" style="stroke: none; stroke-width: 1.0;"/><path d="M423,89.6514 L423,128.4834 L403,132.4834 L423,136.4834 L423,175.3154 A0,0 0 0 0 423,175.3154 L649,175.3154 A0,0 0 0 0 649,175.3154 L649,99.6514 L639,89.6514 L423,89.6514 A0,0 0 0 0 423,89.6514 " fill="#FBFB77" filter="url(#fcj2ogmakdqc6)" style="stroke: #A80036; stroke-width: 1.0;"/><path d="M639,89.6514 L639,99.6514 L649,99.6514 L639,89.6514 " fill="#FBFB77" style="stroke: #A80036; stroke-width: 1.0;"/><text fill="#000000" font-family="sans-serif" font-size="13" font-weight="bold" lengthAdjust="spacingAndGlyphs" textLength="142" x="429" y="106.7183">Artefatos possíveis</text><text fill="#000000" font-family="sans-serif" font-size="13" lengthAdjust="spacingAndGlyphs" textLength="4" x="571" y="106.7183">:</text><text fill="#000000" font-family="sans-serif" font-size="13" lengthAdjust="spacingAndGlyphs" textLength="182" x="429" y="121.8511">Visão do produto (essencial)</text><text fill="#000000" font-family="sans-serif" font-size="13" lengthAdjust="spacingAndGlyphs" textLength="202" x="429" y="136.9839">User story map (recomendado)</text><text fill="#000000" font-family="sans-serif" font-size="13" lengthAdjust="spacingAndGlyphs" textLength="0" x="433" y="152.1167"/><text fill="#000000" font-family="sans-serif" font-size="13" lengthAdjust="spacingAndGlyphs" textLength="205" x="429" y="167.2495">Mais intenso no início do projeto</text><rect fill="#FEFECE" filter="url(#fcj2ogmakdqc6)" height="61.9063" rx="12.5" ry="12.5" style="stroke: #A80036; stroke-width: 1.5;" width="189" x="214" y="101.5303"/><text fill="#000000" font-family="sans-serif" font-size="12" lengthAdjust="spacingAndGlyphs" textLength="0" x="228" y="122.6689"/><text fill="#000000" font-family="sans-serif" font-size="12" font-weight="bold" lengthAdjust="spacingAndGlyphs" textLength="56" x="228" y="122.6689">RDM 1.1</text><text fill="#000000" font-family="sans-serif" font-size="12" lengthAdjust="spacingAndGlyphs" textLength="169" x="224" y="136.6377">Registrar requisitos iniciais</text><text fill="#000000" font-family="sans-serif" font-size="12" lengthAdjust="spacingAndGlyphs" textLength="109" x="224" y="150.6064">dos stakeholders</text><path d="M405,185.3154 L405,231.7139 L385,235.7139 L405,239.7139 L405,286.1123 A0,0 0 0 0 405,286.1123 L694,286.1123 A0,0 0 0 0 694,286.1123 L694,195.3154 L684,185.3154 L405,185.3154 A0,0 0 0 0 405,185.3154 " fill="#FBFB77" filter="url(#fcj2ogmakdqc6)" style="stroke: #A80036; stroke-width: 1.0;"/><path d="M684,185.3154 L684,195.3154 L694,195.3154 L684,185.3154 " fill="#FBFB77" style="stroke: #A80036; stroke-width: 1.0;"/><text fill="#000000" font-family="sans-serif" font-size="13" font-weight="bold" lengthAdjust="spacingAndGlyphs" textLength="142" x="411" y="202.3823">Artefatos possíveis</text><text fill="#000000" font-family="sans-serif" font-size="13" lengthAdjust="spacingAndGlyphs" textLength="4" x="553" y="202.3823">:</text><text fill="#000000" font-family="sans-serif" font-size="13" lengthAdjust="spacingAndGlyphs" textLength="175" x="411" y="217.5151">Product backlog (essencial)</text><text fill="#000000" font-family="sans-serif" font-size="13" lengthAdjust="spacingAndGlyphs" textLength="150" x="411" y="232.6479">User stories (essencial)</text><text fill="#000000" font-family="sans-serif" font-size="13" lengthAdjust="spacingAndGlyphs" textLength="268" x="411" y="247.7808">Feedback de incrementos (recomendado)</text><text fill="#000000" font-family="sans-serif" font-size="13" lengthAdjust="spacingAndGlyphs" textLength="0" x="415" y="262.9136"/><text fill="#000000" font-family="sans-serif" font-size="13" lengthAdjust="spacingAndGlyphs" textLength="118" x="411" y="278.0464">Atividade contínua</text><rect fill="#FEFECE" filter="url(#fcj2ogmakdqc6)" height="61.9063" rx="12.5" ry="12.5" style="stroke: #A80036; stroke-width: 1.5;" width="153" x="232" y="204.7607"/><text fill="#000000" font-family="sans-serif" font-size="12" lengthAdjust="spacingAndGlyphs" textLength="0" x="246" y="225.8994"/><text fill="#000000" font-family="sans-serif" font-size="12" font-weight="bold" lengthAdjust="spacingAndGlyphs" textLength="56" x="246" y="225.8994">RDM 2.1</text><text fill="#000000" font-family="sans-serif" font-size="12" lengthAdjust="spacingAndGlyphs" textLength="133" x="242" y="239.8682">Elicitar e estabelecer</text><text fill="#000000" font-family="sans-serif" font-size="12" lengthAdjust="spacingAndGlyphs" textLength="75" x="242" y="253.8369">user stories</text><path d="M194,980.9248 L194,1012.1904 L174,1016.1904 L194,1020.1904 L194,1051.4561 A0,0 0 0 0 194,1051.4561 L405,1051.4561 A0,0 0 0 0 405,1051.4561 L405,990.9248 L395,980.9248 L194,980.9248 A0,0 0 0 0 194,980.9248 " fill="#FBFB77" filter="url(#fcj2ogmakdqc6)" style="stroke: #A80036; stroke-width: 1.0;"/><path d="M395,980.9248 L395,990.9248 L405,990.9248 L395,980.9248 " fill="#FBFB77" style="stroke: #A80036; stroke-width: 1.0;"/><text fill="#000000" font-family="sans-serif" font-size="13" lengthAdjust="spacingAndGlyphs" textLength="147" x="200" y="997.9917">A definir com a equipe:</text><text fill="#000000" font-family="sans-serif" font-size="13" lengthAdjust="spacingAndGlyphs" textLength="159" x="200" y="1013.1245">• Critérios de priorização</text><text fill="#000000" font-family="sans-serif" font-size="13" lengthAdjust="spacingAndGlyphs" textLength="136" x="200" y="1028.2573">• Fluxo de aprovação</text><text fill="#000000" font-family="sans-serif" font-size="13" lengthAdjust="spacingAndGlyphs" textLength="190" x="200" y="1043.3901">• Comunicação de mudanças</text><rect fill="#FEFECE" filter="url(#fcj2ogmakdqc6)" height="47.9375" rx="12.5" ry="12.5" style="stroke: #A80036; stroke-width: 1.5;" width="154" x="20" y="992.2217"/><text fill="#000000" font-family="sans-serif" font-size="12" lengthAdjust="spacingAndGlyphs" textLength="134" x="30" y="1013.3604">Gestão de mudanças</text><text fill="#000000" font-family="sans-serif" font-size="12" lengthAdjust="spacingAndGlyphs" textLength="109" x="30" y="1027.3291">(avaliar e decidir)</text><path d="M908,296.1123 L908,342.5107 L888,346.5107 L908,350.5107 L908,396.9092 A0,0 0 0 0 908,396.9092 L1171,396.9092 A0,0 0 0 0 1171,396.9092 L1171,306.1123 L1161,296.1123 L908,296.1123 A0,0 0 0 0 908,296.1123 " fill="#FBFB77" filter="url(#fcj2ogmakdqc6)" style="stroke: #A80036; stroke-width: 1.0;"/><path d="M1161,296.1123 L1161,306.1123 L1171,306.1123 L1161,296.1123 " fill="#FBFB77" style="stroke: #A80036; stroke-width: 1.0;"/><text fill="#000000" font-family="sans-serif" font-size="13" font-weight="bold" lengthAdjust="spacingAndGlyphs" textLength="142" x="914" y="313.1792">Artefatos possíveis</text><text fill="#000000" font-family="sans-serif" font-size="13" lengthAdjust="spacingAndGlyphs" textLength="4" x="1056" y="313.1792">:</text><text fill="#000000" font-family="sans-serif" font-size="13" lengthAdjust="spacingAndGlyphs" textLength="242" x="914" y="328.312">Product backlog priorizado (essencial)</text><text fill="#000000" font-family="sans-serif" font-size="13" lengthAdjust="spacingAndGlyphs" textLength="180" x="914" y="343.4448">Story points (recomendado)</text><text fill="#000000" font-family="sans-serif" font-size="13" lengthAdjust="spacingAndGlyphs" textLength="147" x="914" y="358.5776">Critérios de priorização</text><text fill="#000000" font-family="sans-serif" font-size="13" lengthAdjust="spacingAndGlyphs" textLength="0" x="918" y="373.7104"/><text fill="#000000" font-family="sans-serif" font-size="13" lengthAdjust="spacingAndGlyphs" textLength="154" x="914" y="388.8433">PO prioriza, time estima</text><rect fill="#FEFECE" filter="url(#fcj2ogmakdqc6)" height="75.875" rx="12.5" ry="12.5" style="stroke: #A80036; stroke-width: 1.5;" width="180" x="708" y="308.5732"/><text fill="#000000" font-family="sans-serif" font-size="12" lengthAdjust="spacingAndGlyphs" textLength="0" x="722" y="329.7119"/><text fill="#000000" font-family="sans-serif" font-size="12" font-weight="bold" lengthAdjust="spacingAndGlyphs" textLength="56" x="722" y="329.7119">RDM 2.2</text><text fill="#000000" font-family="sans-serif" font-size="12" lengthAdjust="spacingAndGlyphs" textLength="152" x="718" y="343.6807">Refinamento do backlog</text><text fill="#000000" font-family="sans-serif" font-size="12" lengthAdjust="spacingAndGlyphs" textLength="160" x="718" y="357.6494">(priorização + estimativa)</text><text fill="#000000" font-family="sans-serif" font-size="12" lengthAdjust="spacingAndGlyphs" textLength="131" x="718" y="371.6182">Decisão colaborativa</text><path d="M912,629.0576 L912,645.1904 L892,649.1904 L912,653.1904 L912,669.3232 A0,0 0 0 0 912,669.3232 L1126,669.3232 A0,0 0 0 0 1126,669.3232 L1126,639.0576 L1116,629.0576 L912,629.0576 A0,0 0 0 0 912,629.0576 " fill="#FBFB77" filter="url(#fcj2ogmakdqc6)" style="stroke: #A80036; stroke-width: 1.0;"/><path d="M1116,629.0576 L1116,639.0576 L1126,639.0576 L1116,629.0576 " fill="#FBFB77" style="stroke: #A80036; stroke-width: 1.0;"/><text fill="#000000" font-family="sans-serif" font-size="13" lengthAdjust="spacingAndGlyphs" textLength="193" x="918" y="646.1245">Próxima etapa para discussão</text><text fill="#000000" font-family="sans-serif" font-size="13" lengthAdjust="spacingAndGlyphs" textLength="87" x="918" y="661.2573">com a equipe</text><rect fill="#FEFECE" filter="url(#fcj2ogmakdqc6)" height="61.9063" rx="12.5" ry="12.5" style="stroke: #A80036; stroke-width: 1.5;" width="188" x="704" y="618.2373"/><text fill="#000000" font-family="sans-serif" font-size="12" lengthAdjust="spacingAndGlyphs" textLength="0" x="718" y="639.376"/><text fill="#000000" font-family="sans-serif" font-size="12" font-weight="bold" lengthAdjust="spacingAndGlyphs" textLength="56" x="718" y="639.376">RDM 2.4</text><text fill="#000000" font-family="sans-serif" font-size="12" lengthAdjust="spacingAndGlyphs" textLength="95" x="714" y="653.3447">Sprint Planning</text><text fill="#000000" font-family="sans-serif" font-size="12" lengthAdjust="spacingAndGlyphs" textLength="168" x="714" y="667.3135">(validação e compromisso)</text><path d="M1389,406.9092 L1389,507.7061 L1677,507.7061 L1677,416.9092 L1667,406.9092 L1389,406.9092 " fill="#FBFB77" filter="url(#fcj2ogmakdqc6)" style="stroke: #A80036; stroke-width: 1.0;"/><path d="M1667,406.9092 L1667,416.9092 L1677,416.9092 L1667,406.9092 " fill="#FBFB77" style="stroke: #A80036; stroke-width: 1.0;"/><text fill="#000000" font-family="sans-serif" font-size="13" font-weight="bold" lengthAdjust="spacingAndGlyphs" textLength="142" x="1395" y="423.9761">Artefatos possíveis</text><text fill="#000000" font-family="sans-serif" font-size="13" lengthAdjust="spacingAndGlyphs" textLength="4" x="1537" y="423.9761">:</text><text fill="#000000" font-family="sans-serif" font-size="13" lengthAdjust="spacingAndGlyphs" textLength="212" x="1395" y="439.1089">Critérios de aceitação (essencial)</text><text fill="#000000" font-family="sans-serif" font-size="13" lengthAdjust="spacingAndGlyphs" textLength="267" x="1395" y="454.2417">Análise técnica detalhada (recomendado)</text><text fill="#000000" font-family="sans-serif" font-size="13" lengthAdjust="spacingAndGlyphs" textLength="244" x="1395" y="469.3745">Identificação de riscos (recomendado)</text><text fill="#000000" font-family="sans-serif" font-size="13" lengthAdjust="spacingAndGlyphs" textLength="0" x="1399" y="484.5073"/><text fill="#000000" font-family="sans-serif" font-size="13" lengthAdjust="spacingAndGlyphs" textLength="161" x="1395" y="499.6401">Atividade interna do time</text><path d="M1378.5,527.7061 L1378.5,598.2373 L1687.5,598.2373 L1687.5,537.7061 L1677.5,527.7061 L1378.5,527.7061 " fill="#FBFB77" filter="url(#fcj2ogmakdqc6)" style="stroke: #A80036; stroke-width: 1.0;"/><path d="M1677.5,527.7061 L1677.5,537.7061 L1687.5,537.7061 L1677.5,527.7061 " fill="#FBFB77" style="stroke: #A80036; stroke-width: 1.0;"/><text fill="#000000" font-family="sans-serif" font-size="13" lengthAdjust="spacingAndGlyphs" textLength="288" x="1384.5" y="544.7729">════════════════════════════════════</text><text fill="#000000" font-family="sans-serif" font-size="13" font-weight="bold" lengthAdjust="spacingAndGlyphs" textLength="213" x="1384.5" y="559.9058">Práticas detalhadas acima ↑</text><text fill="#000000" font-family="sans-serif" font-size="13" font-weight="bold" lengthAdjust="spacingAndGlyphs" textLength="183" x="1384.5" y="575.0386">Fluxo resumido abaixo ↓</text><text fill="#000000" font-family="sans-serif" font-size="13" lengthAdjust="spacingAndGlyphs" textLength="288" x="1384.5" y="590.1714">════════════════════════════════════</text><rect fill="#FEFECE" filter="url(#fcj2ogmakdqc6)" height="61.9063" rx="12.5" ry="12.5" style="stroke: #A80036; stroke-width: 1.5;" width="181" x="1187.5" y="471.6201"/><text fill="#000000" font-family="sans-serif" font-size="12" lengthAdjust="spacingAndGlyphs" textLength="0" x="1201.5" y="492.7588"/><text fill="#000000" font-family="sans-serif" font-size="12" font-weight="bold" lengthAdjust="spacingAndGlyphs" textLength="56" x="1201.5" y="492.7588">RDM 2.3</text><text fill="#000000" font-family="sans-serif" font-size="12" lengthAdjust="spacingAndGlyphs" textLength="107" x="1197.5" y="506.7275">Analisar e validar</text><text fill="#000000" font-family="sans-serif" font-size="12" lengthAdjust="spacingAndGlyphs" textLength="161" x="1197.5" y="520.6963">requisitos (internamente)</text><path d="M1376,762.5303 L1376,771.0967 L1356,775.0967 L1376,779.0967 L1376,787.6631 A0,0 0 0 0 1376,787.6631 L1449,787.6631 A0,0 0 0 0 1449,787.6631 L1449,772.5303 L1439,762.5303 L1376,762.5303 A0,0 0 0 0 1376,762.5303 " fill="#FBFB77" filter="url(#fcj2ogmakdqc6)" style="stroke: #A80036; stroke-width: 1.0;"/><path d="M1439,762.5303 L1439,772.5303 L1449,772.5303 L1439,762.5303 " fill="#FBFB77" style="stroke: #A80036; stroke-width: 1.0;"/><text fill="#000000" font-family="sans-serif" font-size="13" lengthAdjust="spacingAndGlyphs" textLength="52" x="1382" y="779.5972">A definir</text><rect fill="#FEFECE" filter="url(#fcj2ogmakdqc6)" height="61.9063" rx="12.5" ry="12.5" style="stroke: #A80036; stroke-width: 1.5;" width="156" x="1200" y="744.1436"/><text fill="#000000" font-family="sans-serif" font-size="12" lengthAdjust="spacingAndGlyphs" textLength="0" x="1214" y="765.2822"/><text fill="#000000" font-family="sans-serif" font-size="12" font-weight="bold" lengthAdjust="spacingAndGlyphs" textLength="56" x="1214" y="765.2822">RDM 2.5</text><text fill="#000000" font-family="sans-serif" font-size="12" lengthAdjust="spacingAndGlyphs" textLength="136" x="1210" y="779.251">Desenvolvimento com</text><text fill="#000000" font-family="sans-serif" font-size="12" lengthAdjust="spacingAndGlyphs" textLength="95" x="1210" y="793.2197">rastreabilidade</text><path d="M1375,851.4209 L1375,859.9873 L1355,863.9873 L1375,867.9873 L1375,876.5537 A0,0 0 0 0 1375,876.5537 L1448,876.5537 A0,0 0 0 0 1448,876.5537 L1448,861.4209 L1438,851.4209 L1375,851.4209 A0,0 0 0 0 1375,851.4209 " fill="#FBFB77" filter="url(#fcj2ogmakdqc6)" style="stroke: #A80036; stroke-width: 1.0;"/><path d="M1438,851.4209 L1438,861.4209 L1448,861.4209 L1438,851.4209 " fill="#FBFB77" style="stroke: #A80036; stroke-width: 1.0;"/><text fill="#000000" font-family="sans-serif" font-size="13" lengthAdjust="spacingAndGlyphs" textLength="52" x="1381" y="868.4878">A definir</text><rect fill="#FEFECE" filter="url(#fcj2ogmakdqc6)" height="75.875" rx="12.5" ry="12.5" style="stroke: #A80036; stroke-width: 1.5;" width="154" x="1201" y="826.0498"/><text fill="#000000" font-family="sans-serif" font-size="12" lengthAdjust="spacingAndGlyphs" textLength="0" x="1215" y="847.1885"/><text fill="#000000" font-family="sans-serif" font-size="12" font-weight="bold" lengthAdjust="spacingAndGlyphs" textLength="56" x="1215" y="847.1885">RDM 2.6</text><text fill="#000000" font-family="sans-serif" font-size="12" lengthAdjust="spacingAndGlyphs" textLength="134" x="1211" y="861.1572">Garantir consistência</text><text fill="#000000" font-family="sans-serif" font-size="12" lengthAdjust="spacingAndGlyphs" textLength="111" x="1211" y="875.126">com os requisitos</text><text fill="#000000" font-family="sans-serif" font-size="12" lengthAdjust="spacingAndGlyphs" textLength="72" x="1211" y="889.0947">Daily Scrum</text><polygon fill="#FEFECE" filter="url(#fcj2ogmakdqc6)" points="1214,936.9248,1342,936.9248,1354,948.9248,1342,960.9248,1214,960.9248,1202,948.9248,1214,936.9248" style="stroke: #A80036; stroke-width: 1.5;"/><text fill="#000000" font-family="sans-serif" font-size="11" lengthAdjust="spacingAndGlyphs" textLength="128" x="1214" y="952.7329">Mudança de requisito?</text><text fill="#000000" font-family="sans-serif" font-size="11" lengthAdjust="spacingAndGlyphs" textLength="21" x="1181" y="946.3306">sim</text><text fill="#000000" font-family="sans-serif" font-size="11" lengthAdjust="spacingAndGlyphs" textLength="21" x="1354" y="946.3306">não</text><rect fill="#FEFECE" filter="url(#fcj2ogmakdqc6)" height="33.9688" rx="12.5" ry="12.5" style="stroke: #A80036; stroke-width: 1.5;" width="190" x="1394.5" y="980.9248"/><text fill="#000000" font-family="sans-serif" font-size="12" lengthAdjust="spacingAndGlyphs" textLength="170" x="1404.5" y="1002.0635">Continuar desenvolvimento</text><polygon fill="#FEFECE" filter="url(#fcj2ogmakdqc6)" points="1278,1061.4561,1290,1073.4561,1278,1085.4561,1266,1073.4561,1278,1061.4561" style="stroke: #A80036; stroke-width: 1.5;"/><polygon fill="#FEFECE" filter="url(#fcj2ogmakdqc6)" points="1278,700.1436,1290,712.1436,1278,724.1436,1266,712.1436,1278,700.1436" style="stroke: #A80036; stroke-width: 1.5;"/><polygon fill="#FEFECE" filter="url(#fcj2ogmakdqc6)" points="1242.5,1105.4561,1313.5,1105.4561,1325.5,1117.4561,1313.5,1129.4561,1242.5,1129.4561,1230.5,1117.4561,1242.5,1105.4561" style="stroke: #A80036; stroke-width: 1.5;"/><text fill="#000000" font-family="sans-serif" font-size="11" lengthAdjust="spacingAndGlyphs" textLength="71" x="1242.5" y="1121.2642">Sprint ativa?</text><text fill="#000000" font-family="sans-serif" font-size="11" lengthAdjust="spacingAndGlyphs" textLength="21" x="1325.5" y="1114.8618">sim</text><path d="M1372,1246.0552 L1372,1254.6216 L1352,1258.6216 L1372,1262.6216 L1372,1271.188 A0,0 0 0 0 1372,1271.188 L1445,1271.188 A0,0 0 0 0 1445,1271.188 L1445,1256.0552 L1435,1246.0552 L1372,1246.0552 A0,0 0 0 0 1372,1246.0552 " fill="#FBFB77" filter="url(#fcj2ogmakdqc6)" style="stroke: #A80036; stroke-width: 1.0;"/><path d="M1435,1246.0552 L1435,1256.0552 L1445,1256.0552 L1435,1246.0552 " fill="#FBFB77" style="stroke: #A80036; stroke-width: 1.0;"/><text fill="#000000" font-family="sans-serif" font-size="13" lengthAdjust="spacingAndGlyphs" textLength="52" x="1378" y="1263.1221">A definir</text><rect fill="#FEFECE" filter="url(#fcj2ogmakdqc6)" height="47.9375" rx="12.5" ry="12.5" style="stroke: #A80036; stroke-width: 1.5;" width="148" x="1204" y="1234.6528"/><text fill="#000000" font-family="sans-serif" font-size="12" lengthAdjust="spacingAndGlyphs" textLength="124" x="1218" y="1255.7915">Sprint retrospective</text><text fill="#000000" font-family="sans-serif" font-size="12" lengthAdjust="spacingAndGlyphs" textLength="123" x="1214" y="1269.7603">(melhoria contínua)</text><polygon fill="#FEFECE" filter="url(#fcj2ogmakdqc6)" points="1240,1302.5903,1316,1302.5903,1328,1314.5903,1316,1326.5903,1240,1326.5903,1228,1314.5903,1240,1302.5903" style="stroke: #A80036; stroke-width: 1.5;"/><text fill="#000000" font-family="sans-serif" font-size="11" lengthAdjust="spacingAndGlyphs" textLength="76" x="1240" y="1318.3984">Mais sprints?</text><text fill="#000000" font-family="sans-serif" font-size="11" lengthAdjust="spacingAndGlyphs" textLength="21" x="1207" y="1311.9961">sim</text><text fill="#000000" font-family="sans-serif" font-size="11" lengthAdjust="spacingAndGlyphs" textLength="21" x="1328" y="1311.9961">não</text><path d="M1838.5,1178.1177 L1838.5,1186.6841 L1818.5,1190.6841 L1838.5,1194.6841 L1838.5,1203.2505 A0,0 0 0 0 1838.5,1203.2505 L1911.5,1203.2505 A0,0 0 0 0 1911.5,1203.2505 L1911.5,1188.1177 L1901.5,1178.1177 L1838.5,1178.1177 A0,0 0 0 0 1838.5,1178.1177 " fill="#FBFB77" filter="url(#fcj2ogmakdqc6)" style="stroke: #A80036; stroke-width: 1.0;"/><path d="M1901.5,1178.1177 L1901.5,1188.1177 L1911.5,1188.1177 L1901.5,1178.1177 " fill="#FBFB77" style="stroke: #A80036; stroke-width: 1.0;"/><text fill="#000000" font-family="sans-serif" font-size="13" lengthAdjust="spacingAndGlyphs" textLength="52" x="1844.5" y="1195.1846">A definir</text><rect fill="#FEFECE" filter="url(#fcj2ogmakdqc6)" height="47.9375" rx="12.5" ry="12.5" style="stroke: #A80036; stroke-width: 1.5;" width="121" x="1697.5" y="1166.7153"/><text fill="#000000" font-family="sans-serif" font-size="12" lengthAdjust="spacingAndGlyphs" textLength="83" x="1711.5" y="1187.854">Sprint Review</text><text fill="#000000" font-family="sans-serif" font-size="12" lengthAdjust="spacingAndGlyphs" textLength="101" x="1707.5" y="1201.8228">(demonstração)</text><path d="M2109.5,1351.0083 L2109.5,1359.5747 L2089.5,1363.5747 L2109.5,1367.5747 L2109.5,1376.1411 A0,0 0 0 0 2109.5,1376.1411 L2225.5,1376.1411 A0,0 0 0 0 2225.5,1376.1411 L2225.5,1361.0083 L2215.5,1351.0083 L2109.5,1351.0083 A0,0 0 0 0 2109.5,1351.0083 " fill="#FBFB77" filter="url(#fcj2ogmakdqc6)" style="stroke: #A80036; stroke-width: 1.0;"/><path d="M2215.5,1351.0083 L2215.5,1361.0083 L2225.5,1361.0083 L2215.5,1351.0083 " fill="#FBFB77" style="stroke: #A80036; stroke-width: 1.0;"/><text fill="#000000" font-family="sans-serif" font-size="13" lengthAdjust="spacingAndGlyphs" textLength="95" x="2115.5" y="1368.0752">Ciclo se repete</text><rect fill="#FEFECE" filter="url(#fcj2ogmakdqc6)" height="33.9688" rx="12.5" ry="12.5" style="stroke: #A80036; stroke-width: 1.5;" width="168" x="1921.5" y="1346.5903"/><text fill="#000000" font-family="sans-serif" font-size="12" lengthAdjust="spacingAndGlyphs" textLength="148" x="1931.5" y="1367.729">Preparar próxima sprint</text><rect fill="#FEFECE" filter="url(#fcj2ogmakdqc6)" height="33.9688" rx="12.5" ry="12.5" style="stroke: #A80036; stroke-width: 1.5;" width="100" x="2235.5" y="1346.5903"/><text fill="#000000" font-family="sans-serif" font-size="12" lengthAdjust="spacingAndGlyphs" textLength="80" x="2245.5" y="1367.729">Release final</text><ellipse cx="2285.5" cy="1411.5591" fill="#FFFFFF" filter="url(#fcj2ogmakdqc6)" rx="11" ry="11" style="stroke: #000000; stroke-width: 1.0;"/><ellipse cx="2285.5" cy="1411.5591" fill="#000000" rx="6" ry="6" style="stroke: #7F7F7F; stroke-width: 1.0;"/><line style="stroke: #A80036; stroke-width: 1.5;" x1="308.5" x2="308.5" y1="79.6514" y2="101.5303"/><polygon fill="#A80036" points="304.5,91.5303,308.5,101.5303,312.5,91.5303,308.5,95.5303" style="stroke: #A80036; stroke-width: 1.0;"/><line style="stroke: #A80036; stroke-width: 1.5;" x1="308.5" x2="308.5" y1="163.4365" y2="204.7607"/><polygon fill="#A80036" points="304.5,194.7607,308.5,204.7607,312.5,194.7607,308.5,198.7607" style="stroke: #A80036; stroke-width: 1.0;"/><line style="stroke: #A80036; stroke-width: 1.5;" x1="1278" x2="1278" y1="806.0498" y2="826.0498"/><polygon fill="#A80036" points="1274,816.0498,1278,826.0498,1282,816.0498,1278,820.0498" style="stroke: #A80036; stroke-width: 1.0;"/><line style="stroke: #A80036; stroke-width: 1.5;" x1="1354" x2="1489.5" y1="948.9248" y2="948.9248"/><line style="stroke: #A80036; stroke-width: 1.5;" x1="1489.5" x2="1489.5" y1="948.9248" y2="980.9248"/><polygon fill="#A80036" points="1485.5,970.9248,1489.5,980.9248,1493.5,970.9248,1489.5,974.9248" style="stroke: #A80036; stroke-width: 1.0;"/><line style="stroke: #A80036; stroke-width: 1.5;" x1="1489.5" x2="1489.5" y1="1014.8936" y2="1073.4561"/><line style="stroke: #A80036; stroke-width: 1.5;" x1="1489.5" x2="1290" y1="1073.4561" y2="1073.4561"/><polygon fill="#A80036" points="1300,1069.4561,1290,1073.4561,1300,1077.4561,1296,1073.4561" style="stroke: #A80036; stroke-width: 1.0;"/><line style="stroke: #A80036; stroke-width: 1.5;" x1="1278" x2="1278" y1="901.9248" y2="936.9248"/><polygon fill="#A80036" points="1274,926.9248,1278,936.9248,1282,926.9248,1278,930.9248" style="stroke: #A80036; stroke-width: 1.0;"/><line style="stroke: #A80036; stroke-width: 1.5;" x1="1278" x2="1278" y1="724.1436" y2="744.1436"/><polygon fill="#A80036" points="1274,734.1436,1278,744.1436,1282,734.1436,1278,738.1436" style="stroke: #A80036; stroke-width: 1.0;"/><line style="stroke: #A80036; stroke-width: 1.5;" x1="1325.5" x2="1606.5" y1="1117.4561" y2="1117.4561"/><polygon fill="#A80036" points="1602.5,917.2998,1606.5,907.2998,1610.5,917.2998,1606.5,913.2998" style="stroke: #A80036; stroke-width: 1.5;"/><line style="stroke: #A80036; stroke-width: 1.5;" x1="1606.5" x2="1606.5" y1="712.1436" y2="1117.4561"/><line style="stroke: #A80036; stroke-width: 1.5;" x1="1606.5" x2="1290" y1="712.1436" y2="712.1436"/><polygon fill="#A80036" points="1300,708.1436,1290,712.1436,1300,716.1436,1296,712.1436" style="stroke: #A80036; stroke-width: 1.0;"/><line style="stroke: #A80036; stroke-width: 1.5;" x1="1278" x2="1278" y1="1085.4561" y2="1105.4561"/><polygon fill="#A80036" points="1274,1095.4561,1278,1105.4561,1282,1095.4561,1278,1099.4561" style="stroke: #A80036; stroke-width: 1.0;"/><line style="stroke: #A80036; stroke-width: 1.5;" x1="1278" x2="1278" y1="1282.5903" y2="1302.5903"/><polygon fill="#A80036" points="1274,1292.5903,1278,1302.5903,1282,1292.5903,1278,1296.5903" style="stroke: #A80036; stroke-width: 1.0;"/><line style="stroke: #A80036; stroke-width: 1.5;" x1="2285.5" x2="2285.5" y1="1380.5591" y2="1400.5591"/><polygon fill="#A80036" points="2281.5,1390.5591,2285.5,1400.5591,2289.5,1390.5591,2285.5,1394.5591" style="stroke: #A80036; stroke-width: 1.0;"/><line style="stroke: #A80036; stroke-width: 1.5;" x1="308.5" x2="308.5" y1="266.667" y2="291.1123"/><line style="stroke: #A80036; stroke-width: 1.5;" x1="308.5" x2="798" y1="291.1123" y2="291.1123"/><line style="stroke: #A80036; stroke-width: 1.5;" x1="798" x2="798" y1="291.1123" y2="308.5732"/><polygon fill="#A80036" points="794,298.5732,798,308.5732,802,298.5732,798,302.5732" style="stroke: #A80036; stroke-width: 1.0;"/><line style="stroke: #A80036; stroke-width: 1.5;" x1="798" x2="798" y1="384.4482" y2="410.5342"/><line style="stroke: #A80036; stroke-width: 1.5;" x1="798" x2="1278" y1="410.5342" y2="410.5342"/><line style="stroke: #A80036; stroke-width: 1.5;" x1="1278" x2="1278" y1="410.5342" y2="471.6201"/><polygon fill="#A80036" points="1274,461.6201,1278,471.6201,1282,461.6201,1278,465.6201" style="stroke: #A80036; stroke-width: 1.0;"/><line style="stroke: #A80036; stroke-width: 1.5;" x1="1278" x2="1278" y1="533.5264" y2="588.3818"/><line style="stroke: #A80036; stroke-width: 1.5;" x1="1278" x2="798" y1="588.3818" y2="588.3818"/><line style="stroke: #A80036; stroke-width: 1.5;" x1="798" x2="798" y1="588.3818" y2="618.2373"/><polygon fill="#A80036" points="794,608.2373,798,618.2373,802,608.2373,798,612.2373" style="stroke: #A80036; stroke-width: 1.0;"/><line style="stroke: #A80036; stroke-width: 1.5;" x1="1202" x2="97" y1="948.9248" y2="948.9248"/><line style="stroke: #A80036; stroke-width: 1.5;" x1="97" x2="97" y1="948.9248" y2="992.2217"/><polygon fill="#A80036" points="93,982.2217,97,992.2217,101,982.2217,97,986.2217" style="stroke: #A80036; stroke-width: 1.0;"/><line style="stroke: #A80036; stroke-width: 1.5;" x1="97" x2="97" y1="1040.1592" y2="1073.4561"/><line style="stroke: #A80036; stroke-width: 1.5;" x1="97" x2="1266" y1="1073.4561" y2="1073.4561"/><polygon fill="#A80036" points="1256,1069.4561,1266,1073.4561,1256,1077.4561,1260,1073.4561" style="stroke: #A80036; stroke-width: 1.0;"/><line style="stroke: #A80036; stroke-width: 1.5;" x1="798" x2="798" y1="680.1436" y2="685.1436"/><line style="stroke: #A80036; stroke-width: 1.5;" x1="798" x2="1278" y1="685.1436" y2="685.1436"/><line style="stroke: #A80036; stroke-width: 1.5;" x1="1278" x2="1278" y1="685.1436" y2="700.1436"/><polygon fill="#A80036" points="1274,690.1436,1278,700.1436,1282,690.1436,1278,694.1436" style="stroke: #A80036; stroke-width: 1.0;"/><line style="stroke: #A80036; stroke-width: 1.5;" x1="1278" x2="1278" y1="1129.4561" y2="1151.7153"/><line style="stroke: #A80036; stroke-width: 1.5;" x1="1278" x2="1758" y1="1151.7153" y2="1151.7153"/><line style="stroke: #A80036; stroke-width: 1.5;" x1="1758" x2="1758" y1="1151.7153" y2="1166.7153"/><polygon fill="#A80036" points="1754,1156.7153,1758,1166.7153,1762,1156.7153,1758,1160.7153" style="stroke: #A80036; stroke-width: 1.0;"/><text fill="#000000" font-family="sans-serif" font-size="11" lengthAdjust="spacingAndGlyphs" textLength="21" x="1282" y="1145.2153">não</text><line style="stroke: #A80036; stroke-width: 1.5;" x1="1758" x2="1758" y1="1214.6528" y2="1219.6528"/><line style="stroke: #A80036; stroke-width: 1.5;" x1="1758" x2="1278" y1="1219.6528" y2="1219.6528"/><line style="stroke: #A80036; stroke-width: 1.5;" x1="1278" x2="1278" y1="1219.6528" y2="1234.6528"/><polygon fill="#A80036" points="1274,1224.6528,1278,1234.6528,1282,1224.6528,1278,1228.6528" style="stroke: #A80036; stroke-width: 1.0;"/><line style="stroke: #A80036; stroke-width: 1.5;" x1="1228" x2="1216" y1="1314.5903" y2="1314.5903"/><line style="stroke: #A80036; stroke-width: 1.5;" x1="1216" x2="1216" y1="1314.5903" y2="1332.5903"/><line style="stroke: #A80036; stroke-width: 1.5;" x1="1216" x2="2005.5" y1="1332.5903" y2="1332.5903"/><line style="stroke: #A80036; stroke-width: 1.5;" x1="2005.5" x2="2005.5" y1="1332.5903" y2="1346.5903"/><polygon fill="#A80036" points="2001.5,1336.5903,2005.5,1346.5903,2009.5,1336.5903,2005.5,1340.5903" style="stroke: #A80036; stroke-width: 1.0;"/><line style="stroke: #A80036; stroke-width: 1.5;" x1="1328" x2="2285.5" y1="1314.5903" y2="1314.5903"/><line style="stroke: #A80036; stroke-width: 1.5;" x1="2285.5" x2="2285.5" y1="1314.5903" y2="1346.5903"/><polygon fill="#A80036" points="2281.5,1336.5903,2285.5,1346.5903,2289.5,1336.5903,2285.5,1340.5903" style="stroke: #A80036; stroke-width: 1.0;"/><text fill="#000000" font-family="sans-serif" font-size="18" lengthAdjust="spacingAndGlyphs" textLength="134" x="290" y="50.4063">Product Owner</text><text fill="#000000" font-family="sans-serif" font-size="18" lengthAdjust="spacingAndGlyphs" textLength="198" x="838.5" y="50.4063">Product owner + time</text><text fill="#000000" font-family="sans-serif" font-size="18" lengthAdjust="spacingAndGlyphs" textLength="82" x="1393.25" y="50.4063">Time ágil</text><text fill="#000000" font-family="sans-serif" font-size="18" lengthAdjust="spacingAndGlyphs" textLength="114" x="1747.5" y="50.4063">Stakeholders</text><text fill="#000000" font-family="sans-serif" font-size="18" lengthAdjust="spacingAndGlyphs" textLength="131" x="2067.5" y="50.4063">Product owner</text><line style="stroke: #000000; stroke-width: 2.0;" x1="10" x2="10" y1="33.6982" y2="1438.5591"/><line style="stroke: #000000; stroke-width: 2.0;" x1="699" x2="699" y1="33.6982" y2="1438.5591"/><line style="stroke: #000000; stroke-width: 2.0;" x1="1176" x2="1176" y1="33.6982" y2="1438.5591"/><line style="stroke: #000000; stroke-width: 2.0;" x1="1692.5" x2="1692.5" y1="33.6982" y2="1438.5591"/><line style="stroke: #000000; stroke-width: 2.0;" x1="1916.5" x2="1916.5" y1="33.6982" y2="1438.5591"/><line style="stroke: #000000; stroke-width: 2.0;" x1="2344.5" x2="2344.5" y1="33.6982" y2="1438.5591"/><!--MD5=[2d7964ec4c7a205c37b3d5d43759243a]
@startuml RDM_Agil_Compacto_Parcial_Completa

title RDM CMMI + Práticas ágeis (visão parcial detalhada até RDM 2.3)

|Product Owner|
start

: **RDM 1.1**
Registrar requisitos iniciais
dos stakeholders;
note right
   **Artefatos possíveis**:
   Visão do produto (essencial)
   User story map (recomendado)
  
   Mais intenso no início do projeto
end note

: **RDM 2.1**
Elicitar e estabelecer
user stories;
note right
   **Artefatos possíveis**:
   Product backlog (essencial)
   User stories (essencial)
   Feedback de incrementos (recomendado)
  
   Atividade contínua
end note

|Product owner + time|
: **RDM 2.2**
Refinamento do backlog 
(priorização + estimativa)
Decisão colaborativa;
note right
   **Artefatos possíveis**:
   Product backlog priorizado (essencial)
   Story points (recomendado)
   Critérios de priorização
  
   PO prioriza, time estima
end note

|Time ágil|
: **RDM 2.3**
Analisar e validar
requisitos (internamente);
note right
   **Artefatos possíveis**:
   Critérios de aceitação (essencial)
   Análise técnica detalhada (recomendado)
   Identificação de riscos (recomendado)

   Atividade interna do time
end note

note right
  ════════════════════════════════════
  **Práticas detalhadas acima ↑**
  **Fluxo resumido abaixo ↓**
  ════════════════════════════════════
end note

|Product owner + time|
: **RDM 2.4**
Sprint Planning
(validação e compromisso);
note right
  Próxima etapa para discussão
  com a equipe
end note

|Time ágil|
repeat
  : **RDM 2.5**
  Desenvolvimento com
  rastreabilidade;
  note right
    A definir
  end note
  
  : **RDM 2.6**
  Garantir consistência
  com os requisitos
  Daily Scrum;
  note right
    A definir
  end note
  
  if (Mudança de requisito?) then (sim)
    |Product Owner|
    :Gestão de mudanças
    (avaliar e decidir);
    note right
      A definir com a equipe:
      • Critérios de priorização
      • Fluxo de aprovação
      • Comunicação de mudanças
    end note
    |Time ágil|
  else (não)
    :Continuar desenvolvimento;
  endif
  
repeat while (Sprint ativa?) is (sim)
->não;

|Stakeholders|
: Sprint Review
(demonstração);
note right
  A definir
end note

|Time ágil|
: Sprint retrospective
(melhoria contínua);
note right
  A definir
end note

if (Mais sprints?) then (sim)
  |Product owner|
  :Preparar próxima sprint;
  note right
    Ciclo se repete
  end note
  detach
else (não)
  :Release final;
  stop
endif

@enduml

PlantUML version 1.2020.02(Sun Mar 01 07:22:07 BRT 2020)
(GPL source distribution)
Java Runtime: Java(TM) SE Runtime Environment
JVM: Java HotSpot(TM) 64-Bit Server VM
Java Version: 17.0.11+7-LTS-207
Operating System: Linux
Default Encoding: UTF-8
Language: en
Country: null
--></g></svg>